# xmcd
#
# Track frame offsets: 
#        150
#        12027
#        24613
#        37705
#        53238
#        72377
#        82068
#        99272
#        116565
#        131963
#        143234
#        153040
#        165186
#        176305
#        189559
#        221359
#
# Disc length: 3088 seconds
#
# Revision: 0
# Processed by: cddbd v1.5.2PL0 Copyright (c) Steve Scherf et al.
# Submitted via: ExactAudioCopy v1.0b4
#
DISCID=c70c0e10
DTITLE=Eddie Hinton and The 5 Men-Its - Bandcestors
DYEAR=2005
DGENRE=Blues
TTITLE0=Nice Girl - Eddie Hinton
TTITLE1=Keep On Goin' - Tuscaloosa All-Stars
TTITLE2=I Could Fall In Love With You - Tuscaloosa All-Stars
TTITLE3=Just Another Wild Love Affair - Eddie Hinton
TTITLE4=I Didn't Wanna Lose - Tuscaloosa All-Stars
TTITLE5=Old Man  - The 5 Menits
TTITLE6=Come With Me - Tuscaloosa All-Stars
TTITLE7=Irene, The Soap Opera Queen - Tuscaloosa All-Stars
TTITLE8=You Made Me Sing - Eddie Hinton
TTITLE9=Blue-Blue Feelin' - The 5 Menits
TTITLE10=You're Gonna Lose That Girl - The 5 Menits
TTITLE11=Neighbor, Neighbor - The 5 Menits
TTITLE12=The Night Before - The 5 Menits
TTITLE13=Turn On Your Love Light - The 5 Menits
TTITLE14=Bozo Band Medley - The Bozo Band
TTITLE15=Walkin' With Mr Lee - The 5 Menits
EXTD=
EXTT0=
EXTT1=
EXTT2=
EXTT3=
EXTT4=
EXTT5=
EXTT6=
EXTT7=
EXTT8=
EXTT9=
EXTT10=
EXTT11=
EXTT12=
EXTT13=
EXTT14=
EXTT15=
PLAYORDER=
